<mxfile host="drawio-plugin" modified="2023-11-14T11:17:36.918Z" agent="5.0 (Macintosh; Intel Mac OS X 10_15_7) AppleWebKit/537.36 (KHTML, like Gecko) Chrome/111.0.0.0 Safari/537.36" etag="vxbfhpHvSvtYk7QDaVjl" version="20.5.3" type="embed"><diagram id="R2lEEEUBdFMjLlhIrx00" name="Page-1"><mxGraphModel dx="405" dy="640" grid="1" gridSize="10" guides="1" tooltips="1" connect="1" arrows="1" fold="1" page="1" pageScale="1" pageWidth="850" pageHeight="1100" math="0" shadow="0" extFonts="Permanent Marker^https://fonts.googleapis.com/css?family=Permanent+Marker"><root><mxCell id="0"/><mxCell id="1" parent="0"/><mxCell id="l2z-N3KTKoR_Z3GzLzQW-1" value="conventional&amp;nbsp; power generation" style="rounded=0;whiteSpace=wrap;html=1;" parent="1" vertex="1"><mxGeometry x="260" y="250" width="120" height="60" as="geometry"/></mxCell><mxCell id="l2z-N3KTKoR_Z3GzLzQW-2" value="&lt;u&gt;date_id&lt;/u&gt;" style="ellipse;whiteSpace=wrap;html=1;" parent="1" vertex="1"><mxGeometry x="160" y="140" width="80" height="30" as="geometry"/></mxCell><mxCell id="l2z-N3KTKoR_Z3GzLzQW-3" value="grid_emission_factor" style="ellipse;whiteSpace=wrap;html=1;fontSize=12;" parent="1" vertex="1"><mxGeometry x="269" y="140" width="170" height="30" as="geometry"/></mxCell><mxCell id="l2z-N3KTKoR_Z3GzLzQW-4" value="hard_coal" style="ellipse;whiteSpace=wrap;html=1;fontSize=12;" parent="1" vertex="1"><mxGeometry x="425" y="190" width="170" height="30" as="geometry"/></mxCell><mxCell id="l2z-N3KTKoR_Z3GzLzQW-5" value="natural_gas" style="ellipse;whiteSpace=wrap;html=1;fontSize=12;" parent="1" vertex="1"><mxGeometry x="425" y="240" width="170" height="30" as="geometry"/></mxCell><mxCell id="l2z-N3KTKoR_Z3GzLzQW-7" value="lignite" style="ellipse;whiteSpace=wrap;html=1;fontSize=12;" parent="1" vertex="1"><mxGeometry x="425" y="290" width="170" height="30" as="geometry"/></mxCell><mxCell id="l2z-N3KTKoR_Z3GzLzQW-8" value="total_grid_emissions" style="ellipse;whiteSpace=wrap;html=1;fontSize=12;" parent="1" vertex="1"><mxGeometry x="425" y="350" width="170" height="30" as="geometry"/></mxCell><mxCell id="l2z-N3KTKoR_Z3GzLzQW-9" value="nuclear" style="ellipse;whiteSpace=wrap;html=1;fontSize=12;" parent="1" vertex="1"><mxGeometry x="235" y="370" width="170" height="30" as="geometry"/></mxCell><mxCell id="l2z-N3KTKoR_Z3GzLzQW-10" value="pumped_storage_generation" style="ellipse;whiteSpace=wrap;html=1;fontSize=12;" parent="1" vertex="1"><mxGeometry x="70" y="320" width="170" height="30" as="geometry"/></mxCell><mxCell id="l2z-N3KTKoR_Z3GzLzQW-11" value="other" style="ellipse;whiteSpace=wrap;html=1;fontSize=12;" parent="1" vertex="1"><mxGeometry x="50" y="240" width="170" height="30" as="geometry"/></mxCell><mxCell id="l2z-N3KTKoR_Z3GzLzQW-12" value="" style="endArrow=none;html=1;rounded=0;fontSize=12;startSize=8;endSize=8;curved=1;exitX=1;exitY=0.5;exitDx=0;exitDy=0;entryX=0;entryY=0.5;entryDx=0;entryDy=0;" parent="1" source="l2z-N3KTKoR_Z3GzLzQW-1" target="l2z-N3KTKoR_Z3GzLzQW-5" edge="1"><mxGeometry width="50" height="50" relative="1" as="geometry"><mxPoint x="400" y="320" as="sourcePoint"/><mxPoint x="450" y="270" as="targetPoint"/></mxGeometry></mxCell><mxCell id="l2z-N3KTKoR_Z3GzLzQW-13" value="" style="endArrow=none;html=1;rounded=0;fontSize=12;startSize=8;endSize=8;curved=1;exitX=1;exitY=0.75;exitDx=0;exitDy=0;entryX=0;entryY=0.5;entryDx=0;entryDy=0;" parent="1" source="l2z-N3KTKoR_Z3GzLzQW-1" target="l2z-N3KTKoR_Z3GzLzQW-7" edge="1"><mxGeometry width="50" height="50" relative="1" as="geometry"><mxPoint x="400" y="320" as="sourcePoint"/><mxPoint x="450" y="270" as="targetPoint"/></mxGeometry></mxCell><mxCell id="l2z-N3KTKoR_Z3GzLzQW-14" value="" style="endArrow=none;html=1;rounded=0;fontSize=12;startSize=8;endSize=8;curved=1;exitX=1;exitY=1;exitDx=0;exitDy=0;entryX=0;entryY=0.5;entryDx=0;entryDy=0;" parent="1" source="l2z-N3KTKoR_Z3GzLzQW-1" target="l2z-N3KTKoR_Z3GzLzQW-8" edge="1"><mxGeometry width="50" height="50" relative="1" as="geometry"><mxPoint x="400" y="320" as="sourcePoint"/><mxPoint x="450" y="270" as="targetPoint"/></mxGeometry></mxCell><mxCell id="l2z-N3KTKoR_Z3GzLzQW-17" value="" style="endArrow=none;html=1;rounded=0;fontSize=12;startSize=8;endSize=8;curved=1;exitX=0.5;exitY=1;exitDx=0;exitDy=0;entryX=0.5;entryY=0;entryDx=0;entryDy=0;" parent="1" source="l2z-N3KTKoR_Z3GzLzQW-1" target="l2z-N3KTKoR_Z3GzLzQW-9" edge="1"><mxGeometry width="50" height="50" relative="1" as="geometry"><mxPoint x="400" y="320" as="sourcePoint"/><mxPoint x="450" y="270" as="targetPoint"/></mxGeometry></mxCell><mxCell id="l2z-N3KTKoR_Z3GzLzQW-18" value="" style="endArrow=none;html=1;rounded=0;fontSize=12;startSize=8;endSize=8;curved=1;exitX=1;exitY=0.5;exitDx=0;exitDy=0;entryX=0;entryY=0.5;entryDx=0;entryDy=0;" parent="1" source="l2z-N3KTKoR_Z3GzLzQW-11" target="l2z-N3KTKoR_Z3GzLzQW-1" edge="1"><mxGeometry width="50" height="50" relative="1" as="geometry"><mxPoint x="219" y="250" as="sourcePoint"/><mxPoint x="269" y="200" as="targetPoint"/></mxGeometry></mxCell><mxCell id="l2z-N3KTKoR_Z3GzLzQW-19" value="" style="endArrow=none;html=1;rounded=0;fontSize=12;startSize=8;endSize=8;curved=1;exitX=1;exitY=0.5;exitDx=0;exitDy=0;entryX=0;entryY=1;entryDx=0;entryDy=0;" parent="1" source="l2z-N3KTKoR_Z3GzLzQW-10" target="l2z-N3KTKoR_Z3GzLzQW-1" edge="1"><mxGeometry width="50" height="50" relative="1" as="geometry"><mxPoint x="240" y="340" as="sourcePoint"/><mxPoint x="270" y="310" as="targetPoint"/></mxGeometry></mxCell><mxCell id="l2z-N3KTKoR_Z3GzLzQW-20" value="" style="endArrow=none;html=1;rounded=0;fontSize=12;startSize=8;endSize=8;curved=1;exitX=0.5;exitY=1;exitDx=0;exitDy=0;entryX=0.25;entryY=0;entryDx=0;entryDy=0;" parent="1" source="l2z-N3KTKoR_Z3GzLzQW-2" target="l2z-N3KTKoR_Z3GzLzQW-1" edge="1"><mxGeometry width="50" height="50" relative="1" as="geometry"><mxPoint x="420" y="340" as="sourcePoint"/><mxPoint x="470" y="290" as="targetPoint"/></mxGeometry></mxCell><mxCell id="l2z-N3KTKoR_Z3GzLzQW-21" value="" style="endArrow=none;html=1;rounded=0;fontSize=12;startSize=8;endSize=8;curved=1;exitX=0.592;exitY=-0.017;exitDx=0;exitDy=0;exitPerimeter=0;entryX=0.5;entryY=1;entryDx=0;entryDy=0;" parent="1" source="l2z-N3KTKoR_Z3GzLzQW-1" target="l2z-N3KTKoR_Z3GzLzQW-3" edge="1"><mxGeometry width="50" height="50" relative="1" as="geometry"><mxPoint x="430" y="350" as="sourcePoint"/><mxPoint x="480" y="300" as="targetPoint"/></mxGeometry></mxCell><mxCell id="l2z-N3KTKoR_Z3GzLzQW-22" value="" style="endArrow=none;html=1;rounded=0;fontSize=12;startSize=8;endSize=8;curved=1;exitX=1;exitY=0;exitDx=0;exitDy=0;entryX=0;entryY=0.5;entryDx=0;entryDy=0;" parent="1" source="l2z-N3KTKoR_Z3GzLzQW-1" target="l2z-N3KTKoR_Z3GzLzQW-4" edge="1"><mxGeometry width="50" height="50" relative="1" as="geometry"><mxPoint x="440" y="360" as="sourcePoint"/><mxPoint x="490" y="310" as="targetPoint"/></mxGeometry></mxCell></root></mxGraphModel></diagram></mxfile>